<svg xmlns="http://www.w3.org/2000/svg" xmlns:xlink="http://www.w3.org/1999/xlink" version="1.1" xml:space="preserve" width="79" height="31"><rect id="backgroundrect" width="100%" height="100%" x="0" y="0" fill="none" stroke="none"/>
<style type="text/css">
	.st0{fill:#E16120;}
</style>

<g class="currentLayer"><title>Layer 1</title><g id="svg_1" class="">
	<g id="svg_2">
		<g id="svg_3">
			<path class="st0" d="M28.049997091293335,6.499998927116394 c-0.3000000000000003,-0.6000000000000006 -1.1,-0.7000000000000006 -1.9,-0.6000000000000006 c-0.7000000000000006,0.1 -1.2,0.3000000000000003 -1.3,0.4 c-0.1,0.1 -0.2,0.2 -0.2,0.4 c0,0.3000000000000003 0.3000000000000003,0.6000000000000006 0.1,1.7000000000000002 c-0.1,0.7000000000000006 -1.1,6.2 -1.1,6.2 c-0.6000000000000006,0.3000000000000003 -1.2,0.6000000000000006 -1.7000000000000002,0.6000000000000006 c-0.8,0 -1.2,-0.3000000000000003 -1,-1.6 c0.2,-1.2 0.9,-5.3 0.9,-5.3 c0.1,-0.7000000000000006 0.1,-1.3 -0.1,-1.7000000000000002 c-0.3000000000000003,-0.6000000000000006 -1.1,-0.7000000000000006 -1.9,-0.6000000000000006 c-0.7000000000000006,0.1 -1.2,0.3000000000000003 -1.3,0.4 c-0.1,0.1 -0.2,0.2 -0.2,0.4 c0,0.3000000000000003 0.3000000000000003,0.6000000000000006 0.1,1.7000000000000002 c-0.4,2.1 -0.9,5.3 -1.1,5.9 c-0.4,2.4 0.4,4.2 2.7,4.2 c0.5,0 2,-0.4 3.2,-1 c0,0.2 0.1,0.4 0.2,0.5 c0.6000000000000006,1 2.8,0.6000000000000006 3.3,0.2 c0.1,-0.1 0.2,-0.2 0.2,-0.4 c0,-0.3000000000000003 -0.3000000000000003,-0.6000000000000006 -0.1,-1.7000000000000002 c0.1,-0.7000000000000006 1.4,-7.9 1.4,-7.9 C28.349997091293346,7.399998927116371 28.349997091293346,6.799998927116405 28.049997091293335,6.499998927116394 z" id="svg_4"/>
			<path class="st0" d="M63.94999709129334,0.8999989271163722 c-0.3000000000000003,-0.6000000000000006 -1.1,-0.7000000000000006 -1.9,-0.6000000000000006 c-0.7000000000000006,0.1 -1.2,0.3000000000000003 -1.3,0.4 c-0.2,0 -0.2,0.2 -0.2,0.3000000000000003 c0,0.3000000000000003 0.3000000000000003,0.6000000000000006 0.1,1.7000000000000002 c-0.1,0.5 -2.4,13.5 -2.4,13.5 c-0.1,0.7000000000000006 -0.1,1.3 0.1,1.7000000000000002 c0.3000000000000003,0.6000000000000006 1.1,0.7000000000000006 1.9,0.6000000000000006 c0.7000000000000006,-0.1 1.2,-0.3000000000000003 1.3,-0.4 s0.2,-0.2 0.2,-0.4 c0,-0.3000000000000003 -0.3000000000000003,-0.6000000000000006 -0.1,-1.7000000000000002 c0.1,-0.7000000000000006 2.4,-13.5 2.4,-13.5 C64.24999709129332,1.7999989271164054 64.24999709129332,1.2999989271164054 63.94999709129334,0.8999989271163722 z" id="svg_5"/>
			<path class="st0" d="M77.64999709129333,14.299998927116405 c-0.6000000000000006,-0.4 -1.1,-0.5 -1.3,-0.5 c-0.2,0 -0.3000000000000003,0.1 -0.4,0.2 c-0.1,0.2 -0.6000000000000006,1.7000000000000002 -2.7,3.3 c0.1,-0.7000000000000006 1.6,-9.1 1.6,-9.1 c0.1,-0.7000000000000006 0.1,-1.3 -0.1,-1.7000000000000002 c-0.3000000000000003,-0.6000000000000006 -1.1,-0.7000000000000006 -1.9,-0.6000000000000006 c-0.7000000000000006,0.1 -1.2,0.3000000000000003 -1.3,0.4 c-0.1,0.1 -0.2,0.2 -0.2,0.4 c0,0.3000000000000003 0.2,0.5 0.1,1.4 l-1.1,6.5 c-0.6000000000000006,0.3000000000000003 -1.2,0.6000000000000006 -1.7000000000000002,0.6000000000000006 c-0.8,0 -1.2,-0.3000000000000003 -1,-1.6 c0.2,-0.9 0.9,-5.3 0.9,-5.3 c0.1,-0.7000000000000006 0.1,-1.3 -0.1,-1.7000000000000002 c-0.6000000000000006,-1 -2.6,-0.7000000000000006 -3.3,-0.2 c-0.1,0.1 -0.2,0.2 -0.2,0.4 c0,0.3000000000000003 0.2,0.5 0.1,1.5 c-0.4,2.1 -1,5.4 -1.1,6.2 c-0.4,2.4 0.4,4.2 2.7,4.2 c0.5,0 1.9,-0.3000000000000003 3.1,-0.9 l-0.2,1.6 c-0.1,0.1 -3.5,1.2 -4.9,1.9 c-2.5,1.1 -3.7,4.3 -1.8,6.4 c1.9,2 4.9,0.9 5.9,0.2 c2.3,-1.6 3.3,-4.2 3.9,-6.8 c3.1,-1.6 5.1,-3.5 5.1,-3.5 c0.6000000000000006,-0.5 0.9,-1 1,-1.4 C78.84999709129335,15.399998927116371 78.34999709129335,14.799998927116405 77.64999709129333,14.299998927116405 zM67.54999709129333,24.999998927116394 c-0.6000000000000006,0.4 -1.3,0.3000000000000003 -1.6,0 c-0.3000000000000003,-0.3000000000000003 -0.4,-1.2 1,-1.7000000000000002 c1,-0.4 2,-0.8 2,-0.8 C68.74999709129332,23.499998927116394 68.14999709129333,24.599998927116417 67.54999709129333,24.999998927116394 z" id="svg_6"/>
		</g>
		<path class="st0" d="M57.349997091293346,9.499998927116394 c0.2,-1.3 0.1,-2.1 -0.2,-2.7 c-0.4,-0.9 -1.2,-1.1 -2.1,-1.2 c-1.1,-0.1 -2.9,0.7000000000000006 -3.8,1.3 c-0.3000000000000003,-0.7000000000000006 -1.1,-1.3 -2.2,-1.3 c-1.3,0 -3.1,0.9 -3.8,1.3 c-0.4,-0.9 -1.2,-1.2 -2.2,-1.3 c-1.3,-0.1 -2.9,0.7000000000000006 -3.8,1.3 c-0.4,-0.9 -1.2,-1.2 -2.2,-1.3 c-1.1,-0.1 -2.4,0.5 -3.5,1.1 c-0.3000000000000003,-0.8 -1.2,-0.9 -2,-0.8 c-0.7000000000000006,0.1 -1.2,0.3000000000000003 -1.3,0.4 c-0.1,0.1 -0.2,0.2 -0.2,0.4 c0,0.3000000000000003 0.2,0.5 0.1,1.3 l-1.5,8.3 c-0.1,0.7000000000000006 -0.1,1.3 0.1,1.7000000000000002 c0.3000000000000003,0.6000000000000006 1.1,0.7000000000000006 1.9,0.6000000000000006 c0.7000000000000006,-0.1 1.2,-0.3000000000000003 1.3,-0.4 c0.1,-0.1 0.2,-0.2 0.2,-0.4 c0,-0.3000000000000003 -0.2,-0.7000000000000006 -0.1,-1.3 l1.2,-6.8 c0.4,-0.3000000000000003 1.2,-0.7000000000000006 1.6,-0.7000000000000006 c0.8,0 1,0.5 0.8,1.5 l-1,5.7 c-0.1,0.7000000000000006 -0.1,1.3 0.1,1.7000000000000002 c0.3000000000000003,0.6000000000000006 1.1,0.7000000000000006 1.9,0.6000000000000006 c0.7000000000000006,-0.1 1.2,-0.3000000000000003 1.3,-0.4 c0.1,-0.1 0.2,-0.2 0.2,-0.4 c0,-0.3000000000000003 -0.3000000000000003,-0.6000000000000006 -0.1,-1.3 c0.1,-0.7000000000000006 1.2,-6.9 1.2,-6.9 c0.4,-0.3000000000000003 1.2,-0.7000000000000006 1.6,-0.7000000000000006 c0.8,0 1,0.5 0.8,1.5 c-0.3000000000000003,1.8 -0.1,0.4 -1,5.8 c-0.1,0.7000000000000006 -0.1,1.3 0.1,1.7000000000000002 c0.3000000000000003,0.6000000000000006 1.1,0.7000000000000006 1.9,0.6000000000000006 c0.7000000000000006,-0.1 1.2,-0.3000000000000003 1.3,-0.4 c0.1,-0.1 0.2,-0.2 0.2,-0.4 c0,-0.3000000000000003 -0.2,-0.5 -0.1,-1.4 l1.2,-6.8 c0.3000000000000003,-0.2 1.1,-0.7000000000000006 1.6,-0.7000000000000006 c0.8,0 0.9,0.5 0.8,1.6 c-0.1,0.6000000000000006 -1,5.6 -1,5.6 c-0.1,0.7000000000000006 -0.1,1.3 0.1,1.7000000000000002 c0.3000000000000003,0.5 0.9,0.6000000000000006 1.6,0.6000000000000006 c0.1,0 0.3000000000000003,0 0.4,0 c0.7000000000000006,-0.1 1.2,-0.3000000000000003 1.3,-0.4 c0.1,-0.1 0.2,-0.2 0.2,-0.4 c0,-0.3000000000000003 -0.3000000000000003,-0.6000000000000006 -0.1,-1.7000000000000002 c0,-0.1 0.4,-2.4 0.7000000000000006,-4.2 l0.4,-2.2 c0.4,-0.3000000000000003 1.2,-0.6000000000000006 1.6,-0.6000000000000006 c0.8,0 1,0.5 0.8,1.5 l-1,5.7 c-0.1,0.7000000000000006 -0.1,1.3 0.1,1.7000000000000002 c0.3000000000000003,0.6000000000000006 1.1,0.7000000000000006 1.9,0.6000000000000006 c0.7000000000000006,-0.1 1.2,-0.3000000000000003 1.3,-0.4 c0.1,-0.1 0.2,-0.2 0.2,-0.4 c0,-0.3000000000000003 -0.3000000000000003,-0.6000000000000006 -0.1,-1.7000000000000002 C56.249997091293324,15.999998927116394 57.349997091293346,9.499998927116394 57.349997091293346,9.499998927116394 z" id="svg_7"/>
	</g>
	<path class="st0" d="M23.549997091293335,21.999998927116394 c0,-0.2 -0.2,-0.3000000000000003 -0.3000000000000003,-0.3000000000000003 c-0.3000000000000003,-0.1 -0.5,0 -1.3,-0.4 c-0.6000000000000006,-0.3000000000000003 -3.5,-1.7000000000000002 -7.5,-2.1 l2.9,-16.4 c0.1,-0.7000000000000006 0.1,-1.3 -0.1,-1.7000000000000002 c-0.3000000000000003,-0.6000000000000006 -1.1,-0.7000000000000006 -1.9,-0.6000000000000006 c-0.7000000000000006,0.1 -1.2,0.3000000000000003 -1.3,0.4 s-0.2,0.2 -0.2,0.4 c0,0.3000000000000003 0.3000000000000003,0.6000000000000006 0.1,1.7000000000000002 c0,0.3000000000000003 -1,5.5 -1.8,10 c-2.1,1.3 -4.9,1.9 -5.5,1.1 c-0.3000000000000003,-0.4 -0.2,-1.1 0.1,-2.2 c0.1,-0.2 1.3,-4.9 1.6,-6.3 c0.7000000000000006,-2.6 0.2,-4.9 -2.5,-5.2 c-2.3,-0.2 -4.5,1.1 -5.2,1.9 c-0.5,0.5 -0.3000000000000003,1.1 0.1,1.9 c0.3000000000000003,0.6000000000000006 0.8,1 0.9,1 c0.1,0.1 0.3000000000000003,0.1 0.4,0 c0.8,-0.9 2.2,-1.5 2.7,-1.1 c0.4,0.4 0.3000000000000003,1 0.1,1.7000000000000002 c0,0 -1.5,5.6 -2.1,8 c-0.4,1.7000000000000002 0,3.3 1.3,4.1 c0.9,0.6000000000000006 2.3,0.5 3.4,0.4 c2.4,-0.3000000000000003 3.8,-1.3 4,-1.5 c-0.3000000000000003,1.5 -0.4,2.5 -0.4,2.5 s-2.7,0.2 -4.9,1.6 c-2.9,1.7000000000000002 -4.1,5.7 -2.2,7.8 c1.9,2.1 5.1,1.3 6.5,0.4 c1.3,-0.9 2.9,-2.7 3.7,-6.8 c4.4,0.2 5.5,2.5 7.4,2.6 C22.749997091293324,24.699998927116383 23.64999709129333,23.39999892711637 23.549997091293335,21.999998927116394 zM8.549997091293335,25.999998927116394 c-0.6000000000000006,0.4 -1.3,0.4 -1.7000000000000002,0 c-0.4,-0.5 -0.5,-3.1 3.6,-3.8 C10.44999709129334,22.099998927116417 9.749997091293324,25.199998927116383 8.549997091293335,25.999998927116394 z" id="svg_8"/>
</g></g></svg>